<svg width="97" height="62" viewBox="0 0 97 62" fill="none" xmlns="http://www.w3.org/2000/svg">
<path id="Combined shape 10534" fill-rule="evenodd" clip-rule="evenodd" d="M53.0579 0C64.5198 0 74.5843 7.19947 78.3975 18.0126C88.6528 20.1318 96.0015 29.14 96.0015 39.7886C96.0015 52.0346 86.1033 61.9971 73.9308 61.9971H61.2839C60.4279 61.9971 59.7355 61.2988 59.7355 60.4359C59.7355 59.5759 60.4279 58.8746 61.2839 58.8746H73.9308C84.3948 58.8746 92.9048 50.312 92.9048 39.7886C92.9048 30.3627 86.203 22.4313 76.9762 20.9279L76.0357 20.7723L75.7455 19.8575C72.5973 9.84643 63.4793 3.12545 53.0641 3.12545C42.9708 3.12545 33.9527 9.58416 30.6153 19.2052L29.9774 21.0438L28.3382 20.0191C26.4315 18.8298 24.248 18.1987 22.0236 18.1987C15.3915 18.1987 9.9936 23.6389 9.9936 30.3293L10.0707 31.6342L9.3584 32.3478C5.4376 35.071 3.0968 39.5597 3.0968 44.347C3.0968 52.3549 9.5777 58.8683 17.5435 58.8683L17.8593 58.8715C17.8832 58.872 17.9073 58.8725 17.9316 58.8731C18.0606 58.8761 18.1932 58.8792 18.3205 58.8715H34.7207C35.5751 58.8715 36.2691 59.5728 36.2691 60.4328C36.2691 61.2956 35.5751 61.9939 34.7207 61.9939H18.4007C18.3267 62 18.2344 62 18.1285 62C18.0801 62 18.0291 61.9993 17.9767 61.9986C17.9212 61.9979 17.864 61.9971 17.8065 61.9971C7.872 61.9939 0 54.0776 0 44.3502C0 38.8278 2.5644 33.6377 6.8968 30.2987C6.9117 21.9005 13.6936 15.0762 22.0236 15.0762C24.2102 15.0762 26.3634 15.555 28.3413 16.4789C32.5434 6.55 42.2586 0 53.0579 0ZM64.1751 47.0244C63.7786 47.0244 63.3826 46.8753 63.08 46.5701L49.55 32.9305V60.4328C49.55 61.2956 48.8575 61.9939 48.0031 61.9939C47.1487 61.9939 46.4547 61.2956 46.4547 60.4328V32.9305L32.9242 46.5701C32.321 47.1771 31.3397 47.1771 30.7348 46.5701C30.1316 45.9603 30.1316 44.9691 30.7348 44.3626L46.9068 28.0573L46.9099 28.0543L48.0031 26.9535L49.0962 28.0543L49.0993 28.0573L65.2698 44.3626C65.8745 44.9691 65.8745 45.9603 65.2698 46.5701C64.9672 46.8721 64.5711 47.0244 64.1751 47.0244Z" fill="#F7931E"/>
</svg>
