<svg width="87" height="97" viewBox="0 0 87 97" fill="none" xmlns="http://www.w3.org/2000/svg">
<g id="IMG">
<path id="Vector" d="M43.5 50.0156H57.0938V92.4531H43.5V50.0156Z" fill="#13A8BD"/>
<path id="Vector_2" d="M42.8033 9.87063C36.4312 2.76614 26.083 2.78509 19.7279 9.88958C16.6693 13.2997 14.9531 17.9224 14.9531 22.7345V50.0158H47.5781V22.7345C47.5951 17.9034 45.8619 13.2808 42.8033 9.87063Z" fill="#FCFCFC"/>
<path id="Vector_3" d="M66.6094 4.54688H31.2656C40.2545 4.52793 47.5611 12.6555 47.5781 22.6775C47.5781 22.6965 47.5781 22.7154 47.5781 22.7344V50.0156H82.9219V22.7344C82.9219 12.6934 75.6152 4.54688 66.6094 4.54688Z" fill="#13A8BD"/>
<path id="Vector_4" d="M75.0885 7.21802C76.6518 10.0598 77.4844 13.3374 77.4844 16.6717V31.828C77.4844 38.5157 72.6076 43.953 66.6094 43.953H47.5781V50.0155H82.9219V22.7342C82.9219 16.3876 79.9482 10.5145 75.0885 7.21802Z" fill="#13A8BD"/>
<path id="Vector_5" d="M4.07812 22.8859V49.8451L17.6039 36.375L4.07812 22.8859Z" fill="#13A8BD"/>
<path id="Vector_6" d="M39.4219 49.8451L25.8961 36.375L23.5512 38.7053C22.5147 39.7283 20.9514 39.7283 19.9318 38.7053L17.6039 36.375L4.07812 49.8451V50.0156H39.4219V49.8451Z" fill="#13A8BD"/>
<path id="Vector_7" d="M39.4218 49.8451V22.8859L25.896 36.375L39.4218 49.8451Z" fill="#13A8BD"/>
<path id="Vector_8" d="M17.6039 36.375L19.9488 38.7053C20.9854 39.7283 22.5486 39.7283 23.5682 38.7053L25.8961 36.375L39.4219 22.8859V22.7344H4.07812V22.8859L17.6039 36.375Z" fill="#13A8BD"/>
<path id="Vector_9" d="M14.9531 50.0156L11.4867 57.7453C10.824 59.242 11.3678 61.0607 12.7101 61.8186C13.084 62.027 13.5088 62.1406 13.9336 62.1406H40.4754C41.5119 62.1406 42.4465 61.4965 42.9053 60.4734L47.5781 50.0156H14.9531Z" fill="#FCFCFC"/>
<path id="Vector_10" d="M39.4219 43.9531H47.5781V50.0156H39.4219V43.9531Z" fill="#FCFCFC"/>
<path id="Vector_11" d="M66.6094 3.03125H29.9062C29.7363 3.03125 29.5834 3.06914 29.4305 3.14492C20.9514 4.14902 14.3244 11.7461 13.6617 21.2188H4.07812C3.33047 21.2188 2.71875 21.9008 2.71875 22.7344V50.0156C2.71875 50.8492 3.33047 51.5312 4.07812 51.5312H12.7611L10.2803 57.0822C9.27773 59.3367 10.0934 62.0648 12.0984 63.1826C12.6592 63.5047 13.2879 63.6562 13.9166 63.6562H40.4584C41.0361 63.6562 41.6139 63.5236 42.1406 63.2584V92.4531C42.1406 93.2867 42.7523 93.9688 43.5 93.9688H57.0938C57.8414 93.9688 58.4531 93.2867 58.4531 92.4531V51.5312H82.9219C83.6695 51.5312 84.2812 50.8492 84.2812 50.0156V22.7344C84.2643 11.8598 76.3629 3.0502 66.6094 3.03125ZM31.2656 6.0625C39.5068 6.04355 46.2018 13.4891 46.2188 22.6775C46.2188 22.6965 46.2188 22.7154 46.2188 22.7344V48.5H40.7812V22.7344C40.7812 21.9008 40.1695 21.2188 39.4219 21.2188H16.3805C17.0941 12.6365 23.5342 6.08145 31.2656 6.0625ZM7.47656 48.5L17.6039 38.4211L19.0312 39.8609C20.5775 41.3955 22.9225 41.3955 24.4688 39.8609L25.8961 38.4211L36.0234 48.5H7.47656ZM27.9521 36.375L38.0625 26.2771V46.4539L27.9521 36.375ZM22.6676 37.5875C22.1578 38.099 21.3762 38.099 20.8494 37.5875L7.47656 24.25H36.0234L22.6676 37.5875ZM15.5648 36.375L5.4375 46.4539V26.2771L15.5648 36.375ZM40.4584 60.625H13.9166C13.1689 60.625 12.5572 59.943 12.5572 59.1094C12.5572 58.882 12.6082 58.6357 12.6932 58.4273L15.7857 51.5312H45.3691L41.6648 59.7914C41.4439 60.3029 40.9682 60.625 40.4584 60.625ZM55.7344 90.9375H44.8594V59.4693L48.4107 51.5312H55.7344V90.9375ZM81.5625 48.5H48.9375V22.7344C48.9545 15.952 45.8279 9.64316 40.6793 6.0625H66.6094C74.8676 6.08145 81.5455 13.527 81.5625 22.7344V48.5Z" fill="#1E1E1E"/>
</g>
</svg>
